<svg width="800" height="800" viewBox="0 0 800 800" fill="none" xmlns="http://www.w3.org/2000/svg">
<g clip-path="url(#clip0_1855_2)">
<path d="M400 800C179.439 800 0 620.561 0 400C0 179.439 179.439 0 400 0C620.561 0 800 179.439 800 400C800 620.561 620.561 800 400 800Z" fill="#912AD0"/>
<g opacity="0.2">
<path d="M518.528 435.173C514.405 423.122 507.736 412.973 498.55 404.725C491.239 397.414 482.509 391.711 472.359 387.586C462.209 383.462 449.355 380.275 433.797 378.052L430.797 377.597L393.331 371.866C386.047 370.928 379.941 369.322 375.014 367.098C372.952 366.187 371.023 365.17 369.203 364.073C366.686 362.547 364.436 360.859 362.402 359.011C358.894 355.53 356.456 351.727 355.011 347.603C353.592 343.48 352.869 339.194 352.869 334.748C352.869 322.992 357.073 312.923 365.483 304.514C366.634 303.363 367.866 302.291 369.205 301.327C377.561 295.033 389.423 291.9 404.769 291.9C413.097 291.9 421.773 292.65 430.798 294.177C433.823 294.686 436.878 295.275 439.984 295.944C452.356 298.648 463.792 305.075 474.262 315.225L516.147 273.797C501.552 259.523 485.537 249.373 468.077 243.348C456.883 239.492 444.431 236.841 430.772 235.475C423.141 234.672 415.106 234.297 406.67 234.297C393.173 234.297 380.667 235.663 369.205 238.42C365.053 239.411 361.037 240.563 357.153 241.928C342.558 246.991 330.186 254.059 320.036 263.084C309.886 272.136 302.092 282.928 296.711 295.461C291.302 307.994 288.623 321.894 288.623 337.131C288.623 366 296.711 388.228 312.886 403.759C320.519 411.07 329.542 417.016 340.014 421.622C348.289 425.238 357.983 428.13 369.203 430.245C372.23 430.834 375.336 431.37 378.577 431.852L419.041 438.037C423.592 438.706 427.503 439.43 430.797 440.18C433.716 440.877 436.153 441.572 438.081 442.322C442.205 443.902 446.008 446.286 449.516 449.445C456.478 456.434 459.986 465.808 459.986 477.537C459.986 491.195 454.898 501.666 444.748 508.95C440.839 511.789 436.18 514.066 430.797 515.778C422.228 518.536 411.811 519.902 399.519 519.902C389.075 519.902 378.952 518.964 369.203 517.089C364.462 516.178 359.83 515.053 355.252 513.716C341.3 509.592 328.927 502.147 318.134 491.355L275.286 534.175C291.783 551.019 310.1 562.669 330.266 569.177C342.262 573.059 355.252 575.764 369.231 577.317C378.711 578.389 388.673 578.925 399.064 578.925C410.097 578.925 420.675 578.041 430.798 576.247C436.958 575.175 442.956 573.756 448.794 572.016C464.192 567.436 477.501 560.769 488.776 552.037C500.051 543.308 508.861 532.595 515.209 519.902C521.556 507.208 524.717 492.612 524.717 476.117C524.714 460.881 522.652 447.25 518.528 435.173Z" fill="white"/>
<path d="M430.797 236.573V294.176C421.772 292.65 413.095 291.9 404.767 291.9C389.422 291.9 377.559 295.033 369.203 301.326V236.573C369.203 219.622 383.075 205.776 400 205.776C408.463 205.776 416.175 209.231 421.745 214.828C427.102 220.158 430.503 227.442 430.77 235.475C430.797 235.85 430.797 236.198 430.797 236.573Z" fill="white"/>
<path d="M430.797 377.597V440.181C427.503 439.431 423.594 438.708 419.041 438.039L378.577 431.853C375.336 431.37 372.23 430.836 369.203 430.247V364.073C371.023 365.172 372.952 366.189 375.014 367.098C379.942 369.322 386.047 370.928 393.331 371.865L430.797 377.597Z" fill="white"/>
<path d="M399.519 519.905C411.811 519.905 422.228 518.539 430.797 515.781V576.678C430.797 593.603 416.952 607.475 400 607.475C383.289 607.475 369.552 593.952 369.23 577.32C369.203 577.106 369.203 576.892 369.203 576.678V517.092C378.952 518.967 389.073 519.905 399.519 519.905Z" fill="white"/>
</g>
<g opacity="0.5">
<path d="M400.002 738.489C213.358 738.489 61.5125 586.644 61.5125 400C61.5125 213.356 213.356 61.5107 400.002 61.5107C586.645 61.5107 738.491 213.354 738.491 400C738.491 586.645 586.645 738.489 400.002 738.489ZM400.002 147.819C260.948 147.819 147.82 260.947 147.82 400C147.82 539.053 260.948 652.181 400.002 652.181C539.055 652.181 652.183 539.053 652.183 400C652.183 260.947 539.053 147.819 400.002 147.819Z" fill="#4803A0"/>
</g>
<path d="M287.5 128.539C288.216 130.357 288.838 132.011 289.355 133.492C289.877 134.97 290.255 136.376 290.488 137.706C290.722 139.029 290.784 140.314 290.67 141.551C290.563 142.784 290.216 144.078 289.633 145.417C288.856 147.204 287.784 148.767 286.419 150.107C285.053 151.442 283.263 152.55 281.053 153.417C278.848 154.284 276.778 154.697 274.847 154.653C272.916 154.609 271.058 154.204 269.266 153.425C267.93 152.837 266.799 152.132 265.875 151.301C264.949 150.475 264.127 149.487 263.419 148.348C262.698 147.209 262.031 145.922 261.403 144.484C260.77 143.04 260.102 141.414 259.386 139.595C258.674 137.779 258.056 136.131 257.538 134.648C257.013 133.164 256.628 131.764 256.373 130.442C256.123 129.128 256.049 127.847 256.164 126.609C256.272 125.373 256.622 124.082 257.202 122.743C257.981 120.956 259.059 119.39 260.447 118.042C261.83 116.697 263.625 115.592 265.838 114.725C268.047 113.853 270.108 113.445 272.02 113.497C273.928 113.545 275.783 113.957 277.57 114.732C278.909 115.315 280.041 116.028 280.964 116.856C281.888 117.687 282.711 118.67 283.448 119.8C284.181 120.931 284.863 122.218 285.491 123.653C286.116 125.093 286.792 126.725 287.5 128.539ZM280.073 131.459C279.358 129.643 278.73 128.153 278.192 126.989C277.65 125.825 277.153 124.879 276.702 124.15C276.25 123.42 275.817 122.861 275.395 122.478C274.974 122.082 274.509 121.761 274 121.511C273.227 121.112 272.364 120.892 271.417 120.828C270.467 120.767 269.478 120.943 268.445 121.353C267.414 121.754 266.563 122.307 265.911 122.993C265.256 123.687 264.761 124.44 264.431 125.27C264.231 125.806 264.106 126.359 264.067 126.929C264.024 127.5 264.084 128.206 264.25 129.048C264.419 129.889 264.709 130.915 265.123 132.131C265.542 133.347 266.106 134.864 266.823 136.681C267.536 138.497 268.153 139.992 268.678 141.161C269.2 142.337 269.686 143.276 270.13 143.989C270.573 144.701 271.003 145.25 271.42 145.637C271.845 146.031 272.309 146.347 272.823 146.603C273.627 146.979 274.511 147.212 275.47 147.287C276.425 147.365 277.417 147.2 278.455 146.79C279.484 146.384 280.327 145.832 280.973 145.122C281.617 144.414 282.091 143.651 282.386 142.839C282.589 142.306 282.711 141.753 282.755 141.182C282.795 140.609 282.741 139.912 282.58 139.089C282.422 138.268 282.144 137.25 281.745 136.025C281.342 134.801 280.788 133.276 280.073 131.459Z" fill="#912AD0"/>
<path d="M325.117 139.063L302.816 119.196L309.509 143.385L301.819 145.515L290.906 106.103L297.773 104.204L320.059 124.02L313.378 99.8853L321.077 97.7588L331.984 137.165L325.117 139.063Z" fill="#912AD0"/>
<path d="M340.192 135.87L334.312 95.4012L360.967 91.5293L361.991 98.5777L343.237 101.303L344.612 110.79L360.587 108.475L361.606 115.515L345.639 117.837L347.069 127.673L365.825 124.948L366.852 131.992L340.192 135.87Z" fill="#912AD0"/>
<path d="M415.845 102.662C415.837 104.389 415.525 106.022 414.905 107.57C414.286 109.122 413.402 110.475 412.248 111.639C411.095 112.801 409.672 113.717 407.986 114.378C406.297 115.047 404.403 115.373 402.302 115.365L394.428 115.331L394.369 130.725L386.387 130.697L386.545 89.7998L402.395 89.8623C404.502 89.8701 406.398 90.2123 408.083 90.8889C409.764 91.5623 411.175 92.492 412.32 93.6607C413.462 94.8357 414.341 96.1982 414.945 97.7498C415.553 99.3076 415.85 100.936 415.845 102.662ZM407.861 102.634C407.87 100.95 407.347 99.5873 406.298 98.5514C405.25 97.5123 403.805 96.9857 401.969 96.9842L394.5 96.9529L394.459 108.148L401.928 108.179C403.761 108.186 405.211 107.686 406.266 106.676C407.32 105.667 407.855 104.319 407.861 102.634Z" fill="#912AD0"/>
<path d="M421.38 131.321L425.964 90.6885L452.728 93.7041L451.931 100.781L433.097 98.6604L432.025 108.192L448.061 109.996L447.261 117.076L431.224 115.267L430.111 125.14L448.946 127.26L448.149 134.34L421.38 131.321Z" fill="#912AD0"/>
<path d="M478.311 140.856L468.199 112.748L462.536 137.204L454.756 135.401L463.984 95.5605L470.92 97.1684L481.052 125.22L486.7 100.825L494.48 102.628L485.255 142.465L478.311 140.856Z" fill="#912AD0"/>
<path d="M515.955 153.171L509.391 124.035L500.749 147.597L493.252 144.844L507.338 106.458L514.02 108.913L520.602 137.999L529.228 114.486L536.722 117.239L522.636 155.633L515.955 153.171Z" fill="#912AD0"/>
<path d="M551.77 151.159L544.278 166.159L537.186 162.621L544.678 147.615L544.458 120.548L552.214 124.42L551.688 142.579L565.784 131.192L573.541 135.063L551.77 151.159Z" fill="#912AD0"/>
<path d="M517.502 676.013C516.786 674.192 516.164 672.541 515.647 671.06C515.125 669.581 514.747 668.175 514.514 666.846C514.281 665.524 514.217 664.238 514.331 663.002C514.439 661.769 514.786 660.475 515.369 659.135C516.145 657.347 517.217 655.785 518.583 654.444C519.948 653.11 521.739 652.002 523.948 651.135C526.155 650.267 528.223 649.855 530.155 649.899C532.087 649.942 533.944 650.347 535.736 651.127C537.072 651.714 538.203 652.419 539.127 653.25C540.053 654.077 540.873 655.064 541.583 656.203C542.303 657.342 542.97 658.63 543.598 660.067C544.231 661.511 544.898 663.138 545.616 664.956C546.328 666.772 546.945 668.421 547.464 669.902C547.989 671.386 548.373 672.786 548.628 674.108C548.878 675.422 548.953 676.703 548.837 677.941C548.73 679.178 548.38 680.467 547.8 681.806C547.02 683.594 545.942 685.16 544.555 686.51C543.172 687.855 541.377 688.96 539.164 689.827C536.955 690.699 534.894 691.106 532.981 691.055C531.073 691.006 529.219 690.596 527.431 689.817C526.092 689.235 524.959 688.522 524.037 687.694C523.114 686.863 522.289 685.88 521.553 684.75C520.82 683.619 520.139 682.331 519.511 680.897C518.886 679.456 518.211 677.825 517.502 676.013ZM524.928 673.091C525.644 674.906 526.272 676.397 526.809 677.561C527.352 678.725 527.848 679.671 528.3 680.4C528.752 681.13 529.184 681.689 529.606 682.074C530.028 682.469 530.492 682.791 531.002 683.041C531.775 683.441 532.637 683.66 533.584 683.724C534.534 683.785 535.523 683.61 536.556 683.199C537.586 682.797 538.437 682.244 539.091 681.558C539.747 680.864 540.241 680.111 540.57 679.281C540.77 678.746 540.895 678.192 540.936 677.622C540.98 677.052 540.919 676.346 540.753 675.505C540.584 674.663 540.294 673.638 539.88 672.422C539.462 671.206 538.897 669.689 538.18 667.872C537.467 666.056 536.85 664.561 536.325 663.392C535.803 662.216 535.317 661.278 534.873 660.564C534.43 659.852 534 659.303 533.583 658.916C533.158 658.522 532.694 658.206 532.18 657.95C531.377 657.574 530.492 657.341 529.533 657.266C528.578 657.188 527.586 657.353 526.548 657.763C525.519 658.169 524.677 658.721 524.03 659.431C523.386 660.139 522.912 660.902 522.616 661.714C522.412 662.247 522.291 662.8 522.247 663.371C522.206 663.944 522.261 664.641 522.422 665.464C522.58 666.285 522.858 667.303 523.256 668.528C523.661 669.749 524.216 671.275 524.928 673.091Z" fill="#912AD0"/>
<path d="M479.884 665.488L502.186 685.355L495.492 661.166L503.183 659.036L514.095 698.449L507.228 700.347L484.942 680.531L491.623 704.666L483.925 706.792L473.017 667.386L479.884 665.488Z" fill="#912AD0"/>
<path d="M464.811 668.68L470.691 709.148L444.036 713.02L443.013 705.972L461.766 703.247L460.391 693.759L444.416 696.075L443.397 689.034L459.364 686.713L457.934 676.877L439.178 679.602L438.152 672.558L464.811 668.68Z" fill="#912AD0"/>
<path d="M389.156 701.887C389.164 700.161 389.477 698.528 390.097 696.979C390.716 695.428 391.6 694.075 392.753 692.912C393.906 691.75 395.33 690.834 397.016 690.173C398.705 689.504 400.598 689.178 402.7 689.186L410.572 689.22L410.631 673.826L418.613 673.854L418.455 714.751L402.605 714.689C400.498 714.681 398.602 714.339 396.917 713.662C395.236 712.989 393.825 712.059 392.68 710.89C391.538 709.715 390.659 708.353 390.055 706.801C389.45 705.242 389.153 703.614 389.156 701.887ZM397.142 701.915C397.133 703.6 397.656 704.962 398.705 705.998C399.753 707.037 401.198 707.562 403.034 707.565L410.503 707.596L410.544 696.401L403.075 696.37C401.244 696.364 399.792 696.864 398.738 697.873C397.681 698.882 397.147 700.231 397.142 701.915Z" fill="#912AD0"/>
<path d="M383.623 673.228L379.039 713.861L352.275 710.845L353.072 703.768L371.906 705.889L372.978 696.357L356.941 694.553L357.741 687.473L373.778 689.282L374.891 679.409L356.056 677.289L356.853 670.209L383.623 673.228Z" fill="#912AD0"/>
<path d="M326.692 663.693L336.805 691.801L342.467 667.345L350.247 669.148L341.019 708.989L334.083 707.381L323.952 679.329L318.303 703.725L310.523 701.921L319.748 662.084L326.692 663.693Z" fill="#912AD0"/>
<path d="M289.048 651.38L295.611 680.516L304.253 656.954L311.75 659.707L297.664 698.093L290.981 695.638L284.398 666.55L275.772 690.063L268.278 687.31L282.364 648.916L289.048 651.38Z" fill="#912AD0"/>
<path d="M253.231 653.391L260.723 638.391L267.816 641.928L260.323 656.934L260.544 684.002L252.788 680.13L253.314 661.97L239.217 673.358L231.461 669.486L253.231 653.391Z" fill="#912AD0"/>
<path d="M518.528 428.547C514.405 416.496 507.736 406.347 498.55 398.099C491.239 390.788 482.509 385.085 472.359 380.96C462.209 376.836 449.355 373.649 433.797 371.425L430.797 370.969L393.331 365.238C386.047 364.3 379.941 362.694 375.014 360.471C372.952 359.56 371.023 358.542 369.203 357.446C366.686 355.919 364.436 354.231 362.402 352.383C358.894 348.902 356.456 345.099 355.011 340.975C353.592 336.852 352.869 332.566 352.869 328.121C352.869 316.364 357.073 306.296 365.483 297.886C366.634 296.735 367.866 295.663 369.205 294.699C377.561 288.405 389.423 285.272 404.769 285.272C413.097 285.272 421.773 286.022 430.798 287.549C433.823 288.058 436.878 288.647 439.984 289.316C452.356 292.021 463.792 298.447 474.262 308.597L516.147 267.169C501.552 252.896 485.537 242.746 468.077 236.721C456.883 232.864 444.431 230.213 430.772 228.847C423.141 228.044 415.106 227.669 406.67 227.669C393.173 227.669 380.667 229.035 369.205 231.794C365.053 232.785 361.037 233.936 357.153 235.302C342.558 240.363 330.186 247.433 320.036 256.458C309.886 265.51 302.092 276.302 296.711 288.835C291.302 301.367 288.623 315.267 288.623 330.505C288.623 359.374 296.711 381.6 312.886 397.133C320.519 404.444 329.542 410.389 340.014 414.995C348.289 418.611 357.983 421.503 369.203 423.619C372.23 424.208 375.336 424.744 378.577 425.225L419.041 431.411C423.592 432.08 427.503 432.803 430.797 433.553C433.716 434.25 436.153 434.946 438.081 435.696C442.205 437.275 446.008 439.66 449.516 442.819C456.478 449.81 459.986 459.181 459.986 470.911C459.986 484.569 454.898 495.039 444.748 502.324C440.839 505.163 436.18 507.439 430.797 509.152C422.228 511.91 411.811 513.275 399.519 513.275C389.075 513.275 378.952 512.338 369.203 510.463C364.462 509.552 359.83 508.427 355.252 507.088C341.3 502.964 328.927 495.519 318.134 484.727L275.286 527.547C291.783 544.391 310.1 556.041 330.266 562.549C342.262 566.431 355.252 569.136 369.231 570.689C378.711 571.761 388.673 572.297 399.064 572.297C410.097 572.297 420.675 571.413 430.798 569.619C436.958 568.547 442.956 567.128 448.794 565.388C464.192 560.808 477.501 554.141 488.776 545.41C500.051 536.68 508.861 525.967 515.209 513.274C521.556 500.58 524.717 485.985 524.717 469.489C524.714 454.256 522.652 440.625 518.528 428.547Z" fill="white"/>
<path d="M430.797 229.948V287.551C421.772 286.025 413.095 285.275 404.767 285.275C389.422 285.275 377.559 288.408 369.203 294.701V229.948C369.203 212.997 383.075 199.151 400 199.151C408.463 199.151 416.175 202.606 421.745 208.203C427.102 213.533 430.503 220.815 430.77 228.85C430.797 229.225 430.797 229.573 430.797 229.948Z" fill="white"/>
<path d="M430.797 370.97V433.554C427.503 432.804 423.594 432.081 419.041 431.412L378.577 425.226C375.336 424.743 372.23 424.209 369.203 423.62V357.446C371.023 358.545 372.952 359.562 375.014 360.471C379.942 362.695 386.047 364.301 393.331 365.238L430.797 370.97Z" fill="white"/>
<path d="M399.519 513.278C411.811 513.278 422.228 511.912 430.797 509.154V570.051C430.797 586.976 416.952 600.848 400 600.848C383.289 600.848 369.552 587.325 369.23 570.693C369.203 570.479 369.203 570.265 369.203 570.051V510.467C378.952 512.34 389.073 513.278 399.519 513.278Z" fill="white"/>
<path d="M103.067 414.937C111.317 414.937 118.005 408.25 118.005 400C118.005 391.75 111.317 385.062 103.067 385.062C94.8174 385.062 88.1296 391.75 88.1296 400C88.1296 408.25 94.8174 414.937 103.067 414.937Z" fill="#912AD0"/>
<path d="M693.939 414.937C702.189 414.937 708.876 408.25 708.876 400C708.876 391.75 702.189 385.062 693.939 385.062C685.689 385.062 679.001 391.75 679.001 400C679.001 408.25 685.689 414.937 693.939 414.937Z" fill="#912AD0"/>
<path opacity="0.06" d="M400.188 799.623C502.619 799.623 605.052 760.636 683.031 682.656C838.991 526.697 838.991 272.93 683.031 116.972C605.05 38.9891 502.619 0 400.188 0V799.623Z" fill="#040000"/>
</g>
<defs>
<clipPath id="clip0_1855_2">
<rect width="800" height="800" fill="white"/>
</clipPath>
</defs>
</svg>
